# Blender 3.6.1
# www.blender.org
mtllib floor_rail.mtl
o Product
v -7.847759 73.765366 0.000000
v -8.000000 73.000000 0.000000
v -8.000000 73.000000 8.000000
v -7.847759 73.765366 8.000000
v -7.414214 74.414215 8.000000
v -7.414214 74.414215 0.000000
v -6.765367 74.847755 0.000000
v -6.765367 74.847755 8.000000
v -6.000000 75.000000 8.000000
v -6.000000 75.000000 0.000000
v -5.000000 75.000000 8.000000
v -5.000000 75.000000 0.000000
v -6.000000 25.000000 8.000000
v -7.414214 25.585787 8.000000
v -6.765367 25.152241 8.000000
v -8.000000 27.000000 8.000000
v -7.847759 26.234632 8.000000
v -5.000000 25.000000 8.000000
v -3.086583 24.619398 8.000000
v -3.086583 75.380600 8.000000
v -1.464466 76.464462 8.000000
v -1.464466 23.535534 8.000000
v 0.000000 20.000000 8.000000
v 0.000000 80.000000 8.000000
v -0.380602 21.913418 8.000000
v -0.380602 78.086586 8.000000
v -6.000000 25.000000 0.000000
v -6.765367 25.152241 0.000000
v -7.414214 25.585787 0.000000
v -7.847759 26.234632 0.000000
v -8.000000 27.000000 0.000000
v -5.000000 25.000000 0.000000
v -3.086583 75.380600 0.000000
v -1.464466 76.464462 0.000000
v -0.380602 78.086586 0.000000
v 0.000000 80.000000 0.000000
v 0.000000 0.000000 16.000000
v 0.000000 0.000000 0.000000
v 0.000000 20.000000 0.000000
v 0.000000 100.000000 0.000000
v 0.000000 100.000000 16.000000
v -3.086583 24.619398 0.000000
v -1.464466 23.535534 0.000000
v -0.380602 21.913418 0.000000
v 307.847748 73.765366 8.000000
v 308.000000 73.000000 0.000000
v 307.847748 73.765366 0.000000
v 308.000000 73.000000 8.000000
v 307.414215 74.414215 8.000000
v 307.414215 74.414215 0.000000
v 306.765381 74.847755 8.000000
v 306.765381 74.847755 0.000000
v 306.000000 75.000000 8.000000
v 306.000000 75.000000 0.000000
v 305.000000 75.000000 8.000000
v 305.000000 75.000000 0.000000
v 307.414215 25.585787 8.000000
v 306.000000 25.000000 8.000000
v 306.765381 25.152241 8.000000
v 307.847748 26.234632 8.000000
v 308.000000 27.000000 8.000000
v 305.000000 25.000000 8.000000
v 303.086578 24.619398 8.000000
v 303.086578 75.380600 8.000000
v 301.464478 76.464462 8.000000
v 301.464478 23.535534 8.000000
v 300.000000 80.000000 8.000000
v 300.000000 20.000000 8.000000
v 300.380615 78.086586 8.000000
v 300.380615 21.913418 8.000000
v 306.000000 25.000000 0.000000
v 306.765381 25.152241 0.000000
v 307.414215 25.585787 0.000000
v 307.847748 26.234632 0.000000
v 308.000000 27.000000 0.000000
v 305.000000 25.000000 0.000000
v 303.086578 75.380600 0.000000
v 301.464478 76.464462 0.000000
v 300.380615 78.086586 0.000000
v 300.000000 80.000000 0.000000
v 300.000000 -0.000000 16.000000
v 300.000000 -0.000000 0.000000
v 300.000000 20.000000 0.000000
v 300.000000 100.000000 0.000000
v 300.000000 100.000000 16.000000
v 303.086578 24.619398 0.000000
v 301.464478 23.535534 0.000000
v 300.380615 21.913418 0.000000
vn -0.9237 0.3830 -0.0000
vn -1.0000 0.0008 -0.0000
vn -0.7071 0.7071 -0.0000
vn -0.3830 0.9237 -0.0000
vn -0.7071 0.7071 -0.0001
vn -0.0008 1.0000 -0.0000
vn -0.0000 1.0000 -0.0000
vn -0.0000 -0.0000 1.0000
vn -0.0008 -1.0000 -0.0000
vn -0.0008 -1.0000 -0.0001
vn -0.3830 -0.9237 -0.0000
vn -0.3830 -0.9237 -0.0001
vn -0.7071 -0.7071 -0.0000
vn -0.9237 -0.3830 -0.0000
vn -1.0000 -0.0008 -0.0000
vn -0.9237 -0.3830 0.0001
vn -0.0000 -1.0000 -0.0000
vn -0.0004 1.0000 -0.0000
vn -0.3827 0.9239 -0.0000
vn -0.7068 0.7074 -0.0000
vn -0.9236 0.3834 -0.0000
vn -1.0000 0.0012 -0.0000
vn -1.0000 -0.0000 -0.0000
vn 0.9237 0.3830 -0.0000
vn 1.0000 0.0008 -0.0000
vn 0.9237 0.3831 -0.0000
vn 0.7071 0.7071 -0.0000
vn 0.3831 0.9237 -0.0000
vn 0.3831 0.9237 -0.0001
vn 0.0008 1.0000 -0.0000
vn 0.3830 0.9237 -0.0000
vn 0.0008 1.0000 -0.0001
vn 0.0008 -1.0000 -0.0000
vn 0.3830 -0.9237 -0.0000
vn 0.3831 -0.9237 -0.0000
vn 0.7071 -0.7071 -0.0000
vn 0.9237 -0.3831 -0.0000
vn 0.9237 -0.3830 -0.0000
vn 1.0000 -0.0008 -0.0000
vn 1.0000 -0.0000 -0.0000
vn 0.0004 -1.0000 -0.0000
vn 0.3827 -0.9239 -0.0000
vn 0.7068 -0.7074 -0.0000
vn 0.9236 -0.3834 -0.0000
vn 1.0000 -0.0012 -0.0000
vn -0.0000 -0.0000 -1.0000
vt 0.222412 0.111889
vt 0.222412 0.109421
vt 0.247717 0.109421
vt 0.247717 0.111889
vt 0.247717 0.114358
vt 0.222412 0.114358
vt 0.222412 0.116826
vt 0.247717 0.116826
vt 0.247717 0.119294
vt 0.222412 0.119294
vt 0.590239 0.119294
vt 0.564934 0.116131
vt 0.590239 0.116131
vt 0.564934 0.119294
vt 0.497152 0.100316
vt 0.495299 0.095842
vt 0.496670 0.097895
vt 0.490826 0.093989
vt 0.493247 0.094471
vt 0.497152 0.103479
vt 0.498356 0.109531
vt 0.339477 0.097895
vt 0.340849 0.095842
vt 0.342901 0.094471
vt 0.338996 0.100316
vt 0.345322 0.093989
vt 0.338996 0.103479
vt 0.337792 0.109531
vt 0.334363 0.114662
vt 0.501784 0.114662
vt 0.512968 0.119294
vt 0.323180 0.119294
vt 0.506915 0.118091
vt 0.329232 0.118091
vt 0.248169 0.109421
vt 0.273474 0.109421
vt 0.273474 0.111889
vt 0.248169 0.111889
vt 0.273474 0.114358
vt 0.248169 0.114358
vt 0.273474 0.116826
vt 0.248169 0.116826
vt 0.273474 0.119294
vt 0.248169 0.119294
vt 0.590691 0.116131
vt 0.615996 0.116131
vt 0.590691 0.119294
vt 0.615996 0.119294
vt 0.811206 0.095401
vt 0.811206 0.101572
vt 0.785901 0.095401
vt 0.785901 0.101572
vt 0.811206 0.107743
vt 0.785901 0.107743
vt 0.811206 0.113914
vt 0.785901 0.113914
vt 0.811206 0.120085
vt 0.785901 0.120085
vt 0.006415 0.119747
vt 0.069678 0.145052
vt 0.006415 0.170357
vt 0.069678 0.170357
vt 0.259466 0.145052
vt 0.322728 0.170357
vt 0.259466 0.170357
vt 0.322728 0.119747
vt 0.785901 0.170357
vt 0.785901 0.164186
vt 0.811206 0.170357
vt 0.811206 0.164186
vt 0.785901 0.158015
vt 0.811206 0.158015
vt 0.785901 0.151844
vt 0.811206 0.151844
vt 0.785901 0.145673
vt 0.811206 0.145673
vt 0.639945 0.170357
vt 0.639945 0.145052
vt 0.785449 0.170357
vt 0.785449 0.145052
vt 0.538725 0.116826
vt 0.513420 0.119294
vt 0.513420 0.116826
vt 0.538725 0.119294
vt 0.538725 0.114358
vt 0.513420 0.114358
vt 0.538725 0.111889
vt 0.513420 0.111889
vt 0.538725 0.109421
vt 0.513420 0.109421
vt 0.539177 0.119294
vt 0.564482 0.116131
vt 0.564482 0.119294
vt 0.539177 0.116131
vt 0.024084 0.095842
vt 0.022231 0.100316
vt 0.022712 0.097895
vt 0.026136 0.094471
vt 0.028557 0.093989
vt 0.022231 0.103479
vt 0.021027 0.109531
vt 0.176482 0.094471
vt 0.178534 0.095842
vt 0.174061 0.093989
vt 0.179906 0.097895
vt 0.180387 0.100316
vt 0.180387 0.103479
vt 0.181591 0.109531
vt 0.185020 0.114662
vt 0.017599 0.114662
vt 0.196203 0.119294
vt 0.006415 0.119294
vt 0.190150 0.118091
vt 0.012468 0.118091
vt 0.299231 0.119294
vt 0.273926 0.119294
vt 0.273926 0.116826
vt 0.299231 0.116826
vt 0.273926 0.114358
vt 0.299231 0.114358
vt 0.273926 0.111889
vt 0.299231 0.111889
vt 0.273926 0.109421
vt 0.299231 0.109421
vt 0.665250 0.118842
vt 0.639945 0.115679
vt 0.665250 0.115679
vt 0.639945 0.118842
vt 0.785901 0.145221
vt 0.785901 0.139050
vt 0.811206 0.145221
vt 0.811206 0.139050
vt 0.785901 0.132879
vt 0.811206 0.132879
vt 0.785901 0.126708
vt 0.811206 0.126708
vt 0.785901 0.120537
vt 0.811206 0.120537
vt 0.576230 0.145052
vt 0.639493 0.119747
vt 0.639493 0.170357
vt 0.576230 0.170357
vt 0.323180 0.170357
vt 0.386443 0.145052
vt 0.386443 0.170357
vt 0.323180 0.119747
vt 0.221960 0.094611
vt 0.221960 0.100782
vt 0.196655 0.094611
vt 0.196655 0.100782
vt 0.221960 0.106953
vt 0.196655 0.106953
vt 0.221960 0.113124
vt 0.196655 0.113124
vt 0.221960 0.119294
vt 0.196655 0.119294
vt 0.639945 0.144599
vt 0.639945 0.119295
vt 0.785449 0.119294
vt 0.785449 0.144599
vt 0.955353 0.589246
vt 0.006415 0.272933
vt 0.955353 0.272933
vt 0.006415 0.589246
vt 0.955353 0.272481
vt 0.006415 0.272481
vt 0.006415 0.221871
vt 0.955353 0.221871
vt 1.005963 0.820606
vt 1.005482 0.823027
vt 1.004110 0.825079
vt 1.002058 0.826451
vt 0.999637 0.826932
vt 0.996474 0.826932
vt 0.990422 0.828136
vt 0.999637 0.668776
vt 1.002058 0.669257
vt 1.004110 0.670629
vt 1.005482 0.672681
vt 1.005963 0.675102
vt 0.996474 0.668776
vt 0.990422 0.667572
vt 0.985291 0.831565
vt 0.985291 0.664144
vt 0.981862 0.659013
vt 0.981862 0.836696
vt 0.980658 0.652960
vt 0.980658 0.842748
vt 0.031720 0.842748
vt 0.980658 0.906011
vt 0.031720 0.906011
vt 0.006415 0.820606
vt 0.021957 0.828136
vt 0.015905 0.826933
vt 0.012742 0.826933
vt 0.008268 0.825080
vt 0.006897 0.823027
vt 0.010321 0.826451
vt 0.030516 0.659013
vt 0.030516 0.836696
vt 0.027088 0.831565
vt 0.027088 0.664144
vt 0.021957 0.667572
vt 0.031720 0.652960
vt 0.006415 0.675102
vt 0.015905 0.668776
vt 0.012742 0.668776
vt 0.008268 0.670629
vt 0.010321 0.669258
vt 0.006897 0.672681
vt 0.031720 0.589698
vt 0.980658 0.589698
vt 0.955353 0.221419
vt 0.006415 0.221419
vt 0.006415 0.170809
vt 0.955353 0.170809
s 0
usemtl color
f 85/161/8 37/162/8 81/163/8
f 85/161/8 41/164/8 37/162/8
f 75/169/46 74/170/46 73/171/46
f 75/169/46 73/171/46 72/172/46
f 75/169/46 72/172/46 71/173/46
f 76/174/46 75/169/46 71/173/46
f 86/175/46 75/169/46 76/174/46
f 54/176/46 52/177/46 50/178/46
f 54/176/46 50/178/46 47/179/46
f 54/176/46 47/179/46 46/180/46
f 56/181/46 54/176/46 46/180/46
f 77/182/46 46/180/46 75/169/46
f 77/182/46 86/175/46 87/183/46
f 77/182/46 75/169/46 86/175/46
f 77/182/46 56/181/46 46/180/46
f 78/184/46 77/182/46 87/183/46
f 79/185/46 87/183/46 88/186/46
f 79/185/46 78/184/46 87/183/46
f 80/187/46 88/186/46 83/188/46
f 80/187/46 79/185/46 88/186/46
f 39/189/46 83/188/46 82/190/46
f 39/189/46 82/190/46 38/191/46
f 31/192/46 42/193/46 32/194/46
f 31/192/46 32/194/46 27/195/46
f 31/192/46 29/196/46 30/197/46
f 31/192/46 28/198/46 29/196/46
f 31/192/46 27/195/46 28/198/46
f 35/199/46 44/200/46 43/201/46
f 35/199/46 43/201/46 34/202/46
f 33/203/46 43/201/46 42/193/46
f 33/203/46 34/202/46 43/201/46
f 36/204/46 44/200/46 35/199/46
f 36/204/46 39/189/46 44/200/46
f 36/204/46 80/187/46 83/188/46
f 36/204/46 83/188/46 39/189/46
f 2/205/46 42/193/46 31/192/46
f 2/205/46 33/203/46 42/193/46
f 2/205/46 12/206/46 33/203/46
f 10/207/46 12/206/46 2/205/46
f 6/208/46 10/207/46 2/205/46
f 6/208/46 7/209/46 10/207/46
f 6/208/46 2/205/46 1/210/46
f 40/211/46 80/187/46 36/204/46
f 40/211/46 84/212/46 80/187/46
usemtl substrate
f 1/1/1 2/2/2 3/3/2
f 1/1/1 3/3/2 4/4/1
f 1/1/1 4/4/1 5/5/3
f 6/6/3 1/1/1 5/5/3
f 7/7/4 5/5/5 8/8/4
f 7/7/4 8/8/4 9/9/6
f 7/7/4 6/6/3 5/5/3
f 10/10/6 7/7/4 9/9/6
f 11/11/7 10/12/7 9/13/7
f 11/11/7 12/14/7 10/12/7
f 13/15/8 14/16/8 15/17/8
f 16/18/8 17/19/8 14/16/8
f 16/18/8 14/16/8 13/15/8
f 18/20/8 16/18/8 13/15/8
f 19/21/8 16/18/8 18/20/8
f 8/22/8 5/23/8 4/24/8
f 9/25/8 4/24/8 3/26/8
f 9/25/8 8/22/8 4/24/8
f 11/27/8 9/25/8 3/26/8
f 20/28/8 3/26/8 16/18/8
f 20/28/8 16/18/8 19/21/8
f 20/28/8 11/27/8 3/26/8
f 21/29/8 19/21/8 22/30/8
f 21/29/8 20/28/8 19/21/8
f 23/31/8 24/32/8 25/33/8
f 25/33/8 24/32/8 26/34/8
f 25/33/8 26/34/8 22/30/8
f 22/30/8 26/34/8 21/29/8
f 27/35/9 13/36/10 15/37/11
f 28/38/11 15/37/12 14/39/13
f 28/38/11 27/35/9 15/37/11
f 29/40/13 14/39/13 17/41/14
f 29/40/13 28/38/11 14/39/13
f 30/42/14 17/41/14 16/43/15
f 30/42/16 29/40/13 17/41/14
f 31/44/15 30/42/14 16/43/15
f 32/45/17 18/46/17 27/47/17
f 27/47/17 18/46/17 13/48/17
f 11/49/18 20/50/19 12/51/18
f 12/51/18 20/50/19 33/52/19
f 33/52/19 21/53/20 34/54/20
f 20/50/19 21/53/20 33/52/19
f 34/54/20 26/55/21 35/56/21
f 21/53/20 26/55/21 34/54/20
f 35/56/21 24/57/22 36/58/22
f 26/55/21 24/57/22 35/56/21
f 37/59/23 23/60/23 38/61/23
f 23/60/23 39/62/23 38/61/23
f 24/63/23 40/64/23 36/65/23
f 41/66/23 40/64/23 24/63/23
f 37/59/23 41/66/23 23/60/23
f 23/60/23 41/66/23 24/63/23
f 32/67/9 42/68/11 18/69/9
f 18/69/9 42/68/11 19/70/11
f 19/70/11 43/71/13 22/72/13
f 42/68/11 43/71/13 19/70/11
f 22/72/13 44/73/14 25/74/14
f 43/71/13 44/73/14 22/72/13
f 25/74/14 39/75/15 23/76/15
f 44/73/14 39/75/15 25/74/14
f 3/77/23 2/78/23 16/79/23
f 16/79/23 2/78/23 31/80/23
f 45/81/24 46/82/25 47/83/26
f 45/81/26 48/84/25 46/82/25
f 49/85/27 47/83/26 50/86/27
f 49/85/27 45/81/26 47/83/26
f 51/87/28 50/86/27 52/88/28
f 51/87/29 49/85/27 50/86/27
f 53/89/30 52/88/31 54/90/30
f 53/89/32 51/87/31 52/88/31
f 54/91/7 55/92/7 53/93/7
f 56/94/7 55/92/7 54/91/7
f 57/95/8 58/96/8 59/97/8
f 60/98/8 58/96/8 57/95/8
f 61/99/8 58/96/8 60/98/8
f 61/99/8 62/100/8 58/96/8
f 61/99/8 63/101/8 62/100/8
f 45/102/8 49/103/8 48/104/8
f 49/103/8 51/105/8 48/104/8
f 51/105/8 53/106/8 48/104/8
f 53/106/8 55/107/8 48/104/8
f 48/104/8 64/108/8 61/99/8
f 61/99/8 64/108/8 63/101/8
f 55/107/8 64/108/8 48/104/8
f 63/101/8 65/109/8 66/110/8
f 64/108/8 65/109/8 63/101/8
f 67/111/8 68/112/8 69/113/8
f 69/113/8 68/112/8 70/114/8
f 69/113/8 70/114/8 66/110/8
f 69/113/8 66/110/8 65/109/8
f 58/115/33 71/116/33 72/117/34
f 59/118/35 72/117/35 73/119/36
f 59/118/34 58/115/33 72/117/34
f 57/120/36 73/119/36 74/121/37
f 57/120/36 59/118/35 73/119/36
f 60/122/38 74/121/38 75/123/39
f 60/122/37 57/120/36 74/121/37
f 61/124/39 60/122/37 75/123/39
f 62/125/17 71/126/17 58/127/17
f 62/125/17 76/128/17 71/126/17
f 56/129/30 77/130/31 55/131/30
f 55/131/30 77/130/31 64/132/31
f 64/132/31 78/133/27 65/134/27
f 77/130/31 78/133/27 64/132/31
f 65/134/27 79/135/24 69/136/24
f 78/133/27 79/135/24 65/134/27
f 69/136/24 80/137/25 67/138/25
f 79/135/24 80/137/25 69/136/24
f 68/139/40 81/140/40 82/141/40
f 83/142/40 68/139/40 82/141/40
f 84/143/40 67/144/40 80/145/40
f 84/143/40 85/146/40 67/144/40
f 85/146/40 81/140/40 68/139/40
f 85/146/40 68/139/40 67/144/40
f 62/147/41 63/148/42 76/149/41
f 76/149/41 63/148/42 86/150/42
f 86/150/42 66/151/43 87/152/43
f 63/148/42 66/151/43 86/150/42
f 87/152/43 70/153/44 88/154/44
f 66/151/43 70/153/44 87/152/43
f 88/154/44 68/155/45 83/156/45
f 70/153/44 68/155/45 88/154/44
f 46/157/40 48/158/40 61/159/40
f 46/157/40 61/159/40 75/160/40
f 41/165/7 85/166/7 84/167/7
f 40/168/7 41/165/7 84/167/7
f 38/213/17 82/214/17 81/215/17
f 37/216/17 38/213/17 81/215/17
