# Blender 3.6.1
# www.blender.org
mtllib right_gable_front_edge.mtl
o Product
v 15.407055 0.027259 0.592945
v 15.200000 0.000000 0.800000
v 0.800000 0.000000 0.800000
v 0.400000 0.107180 0.400000
v 15.600000 0.107180 0.400000
v 15.765685 0.234315 0.234315
v 0.150333 0.333167 0.150333
v 15.892820 0.400000 0.107180
v 0.036922 0.559768 0.036922
v 15.972741 0.592945 0.027259
v 0.009284 0.678474 0.009284
v 16.000000 0.800000 0.000000
v 0.000000 0.800000 0.000000
v 0.800000 -0.000000 300.000000
v 15.200000 -0.000000 300.000000
v 15.506146 0.060896 300.000000
v 15.765685 0.234315 300.000000
v 15.939104 0.493853 300.000000
v 16.000000 0.800000 300.000000
v 0.000000 0.800000 300.000000
v 0.493853 0.060896 300.000000
v 0.234315 0.234315 300.000000
v 0.060896 0.493853 300.000000
v 0.000000 1.000000 300.000000
v 16.000000 1.000000 300.000000
v 0.000000 1.000000 0.000000
v 16.000000 1.000000 0.000000
vn -0.0000 -0.9658 -0.2593
vn -0.0000 -1.0000 -0.0008
vn -0.0000 -0.8659 -0.5002
vn -0.0000 -0.7071 -0.7071
vn -0.0000 -0.5837 -0.8120
vn -0.0000 -0.5002 -0.8659
vn -0.0000 -0.3007 -0.9537
vn -0.0000 -0.2593 -0.9658
vn -0.0000 -0.1525 -0.9883
vn -0.0000 -0.3008 -0.9537
vn -0.0000 -0.0008 -1.0000
vn -0.0000 -1.0000 -0.0000
vn 0.0008 -1.0000 -0.0000
vn 0.2593 -0.9658 -0.0000
vn 0.3831 -0.9237 -0.0000
vn 0.5002 -0.8659 -0.0000
vn 0.3830 -0.9237 -0.0000
vn 0.7071 -0.7071 -0.0000
vn 0.8659 -0.5002 -0.0000
vn 0.7071 -0.7071 0.0001
vn 0.9237 -0.3831 -0.0000
vn 0.9658 -0.2593 -0.0000
vn 0.9237 -0.3830 -0.0000
vn 1.0000 -0.0008 -0.0000
vn -0.0002 -0.0000 1.0000
vn 0.0003 -0.0000 1.0000
vn -0.0001 -0.0000 1.0000
vn -0.0000 -0.0000 1.0000
vn 0.0001 -0.0000 1.0000
vn -0.0006 -1.0000 -0.0000
vn -0.3829 -0.9238 -0.0000
vn -0.5001 -0.8660 -0.0000
vn -0.7070 -0.7072 -0.0000
vn -0.8119 -0.5838 -0.0000
vn -0.9237 -0.3832 -0.0000
vn -0.7070 -0.7073 -0.0000
vn -0.9536 -0.3009 -0.0000
vn -0.9883 -0.1527 -0.0000
vn -1.0000 -0.0010 -0.0000
vn -0.0000 1.0000 -0.0000
vn -1.0000 -0.0000 -0.0000
vn -0.0000 -0.0000 -1.0000
vn 1.0000 -0.0000 -0.0000
vt 0.003173 0.073128
vt 0.003863 0.072432
vt 0.051857 0.072448
vt 0.053189 0.073828
vt 0.002530 0.073824
vt 0.001977 0.074520
vt 0.054021 0.074951
vt 0.001554 0.075216
vt 0.054399 0.075795
vt 0.001287 0.075912
vt 0.054492 0.076201
vt 0.001196 0.076608
vt 0.054523 0.076608
vt 0.001196 0.137441
vt 0.001196 0.089447
vt 0.998395 0.137441
vt 0.998395 0.089447
vt 0.907523 0.082416
vt 0.004666 0.084073
vt 0.003769 0.083170
vt 0.907522 0.081473
vt 0.002932 0.082267
vt 0.907521 0.080531
vt 0.002214 0.081363
vt 0.001662 0.080457
vt 0.907520 0.079588
vt 0.001315 0.079551
vt 0.907520 0.078645
vt 0.001196 0.078645
vt 0.057324 0.073275
vt 0.054657 0.075941
vt 0.056303 0.073478
vt 0.055438 0.074056
vt 0.054860 0.074921
vt 0.054657 0.076608
vt 0.105317 0.073275
vt 0.106338 0.073478
vt 0.107203 0.074056
vt 0.107781 0.074921
vt 0.107984 0.075941
vt 0.107984 0.076608
vt 0.003670 0.084208
vt 0.928968 0.084369
vt 0.928967 0.085334
vt 0.002433 0.085488
vt 0.928967 0.086299
vt 0.001660 0.086529
vt 0.928967 0.087265
vt 0.001309 0.087457
vt 0.001224 0.088384
vt 0.928968 0.088230
vt 0.001197 0.089312
vt 0.001196 0.137576
vt 1.001061 0.137576
vt 1.001061 0.190902
vt 0.001196 0.190902
vt 0.817583 0.077559
vt 0.001197 0.077559
vt 0.817583 0.076743
vt 0.001196 0.076743
vt 0.054657 0.073140
vt 0.054657 0.072473
vt 0.107984 0.073140
vt 0.107984 0.072473
vt 0.817583 0.078510
vt 0.001197 0.078510
vt 0.817583 0.077694
vt 0.001196 0.077694
s 0
usemtl color
f 1/1/1 2/2/2 3/3/2
f 1/1/1 3/3/2 4/4/3
f 5/5/3 1/1/1 4/4/3
f 6/6/4 4/4/3 7/7/5
f 6/6/4 5/5/3 4/4/3
f 8/8/6 7/7/5 9/9/7
f 8/8/6 6/6/4 7/7/5
f 10/10/8 9/9/7 11/11/9
f 10/10/8 8/8/6 9/9/10
f 12/12/11 11/11/9 13/13/11
f 12/12/11 10/10/8 11/11/9
f 3/14/12 2/15/12 14/16/12
f 14/16/12 2/15/12 15/17/12
f 15/18/13 2/19/13 1/20/14
f 16/21/15 1/20/14 5/22/16
f 16/21/17 15/18/13 1/20/14
f 17/23/18 6/24/18 8/25/19
f 17/23/18 5/22/16 6/24/18
f 17/23/20 16/21/17 5/22/16
f 18/26/21 8/25/19 10/27/22
f 18/26/23 17/23/18 8/25/19
f 19/28/24 10/27/22 12/29/24
f 19/28/24 18/26/23 10/27/22
f 14/30/25 20/31/25 21/32/25
f 21/32/26 20/31/26 22/33/26
f 22/33/27 20/31/27 23/34/27
f 14/30/28 24/35/28 20/31/28
f 14/30/28 15/36/28 24/35/28
f 16/37/28 17/38/28 15/36/28
f 18/39/29 19/40/29 17/38/29
f 17/38/27 19/40/27 15/36/27
f 15/36/28 25/41/28 24/35/28
f 19/40/28 25/41/28 15/36/28
f 3/42/30 14/43/30 21/44/31
f 4/45/32 21/44/31 22/46/33
f 4/45/32 3/42/30 21/44/31
f 7/47/34 22/46/33 23/48/35
f 7/47/34 4/45/32 22/46/36
f 9/49/37 7/47/34 23/48/35
f 11/50/38 23/48/35 20/51/39
f 11/50/38 9/49/37 23/48/35
f 13/52/39 11/50/38 20/51/39
f 26/53/40 24/54/40 25/55/40
f 27/56/40 26/53/40 25/55/40
f 24/57/41 26/58/41 20/59/41
f 26/58/41 13/60/41 20/59/41
f 27/61/42 12/62/42 26/63/42
f 26/63/42 12/62/42 13/64/42
f 19/65/43 12/66/43 25/67/43
f 12/66/43 27/68/43 25/67/43
