# Blender 3.6.1
# www.blender.org
mtllib right_gable_bottom_edge.mtl
o Product
v 15.506146 0.000000 0.060896
v 15.200000 0.000000 0.000000
v 15.200000 300.000000 0.000000
v 15.506146 300.000000 0.060896
v 15.765685 0.000000 0.234315
v 15.765685 300.000000 0.234315
v 15.939104 0.000000 0.493853
v 15.939104 300.000000 0.493853
v 16.000000 0.000000 0.800000
v 16.000000 300.000000 0.800000
v 0.800000 300.000000 0.000000
v 0.800000 0.000000 0.000000
v 0.000000 0.000000 0.800000
v 0.493853 0.000000 0.060896
v 0.234315 0.000000 0.234315
v 0.060896 0.000000 0.493853
v 0.000000 0.000000 1.000000
v 16.000000 0.000000 1.000000
v 0.493853 300.000000 0.060896
v 0.234315 300.000000 0.234315
v 0.060896 300.000000 0.493853
v 0.000000 300.000000 0.800000
v 0.000000 300.000000 1.000000
v 16.000000 300.000000 1.000000
vn 0.3830 -0.0000 -0.9237
vn 0.0008 -0.0000 -1.0000
vn 0.7071 -0.0000 -0.7071
vn 0.9237 -0.0000 -0.3830
vn 1.0000 -0.0000 -0.0008
vn 0.9237 -0.0001 -0.3830
vn -0.0000 -0.0000 -1.0000
vn -0.0000 -1.0000 -0.0000
vn -0.3830 -0.0000 -0.9237
vn -0.0008 -0.0000 -1.0000
vn -0.7071 -0.0000 -0.7071
vn -0.9237 -0.0000 -0.3830
vn -0.7071 0.0001 -0.7071
vn -1.0000 -0.0000 -0.0008
vn -0.0000 -0.0000 1.0000
vn -1.0000 -0.0000 -0.0000
vn -0.0000 1.0000 -0.0000
vn -0.0000 1.0000 -0.0002
vn -0.0000 1.0000 0.0003
vn -0.0000 1.0000 -0.0001
vn 1.0000 -0.0000 -0.0000
vt 0.999525 0.450782
vt 0.999525 0.451823
vt -0.000343 0.451823
vt -0.000343 0.450783
vt 0.999525 0.449742
vt -0.000343 0.449742
vt 0.999525 0.448702
vt -0.000343 0.448702
vt 0.999525 0.447661
vt -0.000343 0.447661
vt -0.000343 0.504241
vt -0.000343 0.456247
vt 0.999525 0.504241
vt 0.999525 0.456247
vt 0.002323 0.442301
vt -0.000343 0.444968
vt 0.001303 0.442504
vt 0.000438 0.443082
vt -0.000140 0.443947
vt -0.000343 0.445634
vt 0.050317 0.442301
vt 0.051337 0.442504
vt 0.052202 0.443082
vt 0.052780 0.443947
vt 0.052983 0.444968
vt 0.052983 0.445634
vt -0.000343 0.452995
vt -0.000343 0.451954
vt 0.999525 0.451954
vt 0.999525 0.452995
vt -0.000343 0.454035
vt 0.999525 0.454035
vt -0.000343 0.455075
vt 0.999525 0.455075
vt -0.000343 0.456116
vt 0.999525 0.456116
vt -0.000343 0.504372
vt 0.999525 0.504372
vt 0.999525 0.557699
vt -0.000343 0.557699
vt 0.816046 0.446582
vt -0.000343 0.446582
vt 0.816046 0.445766
vt -0.000343 0.445766
vt 0.053115 0.442301
vt 0.055781 0.445634
vt 0.053115 0.442968
vt 0.053317 0.443988
vt 0.053895 0.444853
vt 0.054761 0.445431
vt 0.106441 0.442301
vt 0.103775 0.445634
vt 0.106441 0.442968
vt 0.106238 0.443988
vt 0.105660 0.444853
vt 0.104795 0.445431
vt 0.816046 0.447530
vt -0.000343 0.447530
vt 0.816046 0.446714
vt -0.000343 0.446714
s 0
usemtl color
f 1/1/1 2/2/2 3/3/2
f 1/1/1 3/3/2 4/4/1
f 5/5/3 4/4/1 6/6/3
f 5/5/3 1/1/1 4/4/1
f 7/7/4 6/6/3 8/8/4
f 7/7/4 5/5/3 6/6/3
f 9/9/5 8/8/6 10/10/5
f 9/9/5 7/7/4 8/8/4
f 11/11/7 3/12/7 12/13/7
f 12/13/7 3/12/7 2/14/7
f 12/15/8 13/16/8 14/17/8
f 14/17/8 13/16/8 15/18/8
f 15/18/8 13/16/8 16/19/8
f 12/15/8 17/20/8 13/16/8
f 12/15/8 2/21/8 17/20/8
f 1/22/8 5/23/8 2/21/8
f 7/24/8 9/25/8 5/23/8
f 5/23/8 9/25/8 2/21/8
f 2/21/8 18/26/8 17/20/8
f 9/25/8 18/26/8 2/21/8
f 19/27/9 11/28/10 12/29/10
f 19/27/9 12/29/10 14/30/9
f 20/31/11 14/30/9 15/32/11
f 20/31/11 19/27/9 14/30/9
f 21/33/12 15/32/13 16/34/12
f 21/33/12 20/31/11 15/32/11
f 22/35/14 16/34/12 13/36/14
f 22/35/14 21/33/12 16/34/12
f 23/37/15 17/38/15 18/39/15
f 24/40/15 23/37/15 18/39/15
f 17/41/16 23/42/16 13/43/16
f 23/42/16 22/44/16 13/43/16
f 23/45/17 11/46/17 22/47/17
f 22/47/18 11/46/18 21/48/18
f 21/48/19 11/46/19 20/49/19
f 20/49/20 11/46/20 19/50/20
f 24/51/17 3/52/17 23/45/17
f 23/45/17 3/52/17 11/46/17
f 24/51/17 10/53/17 3/52/17
f 10/53/18 8/54/18 3/52/18
f 3/52/17 6/55/17 4/56/17
f 8/54/17 6/55/17 3/52/17
f 9/57/21 10/58/21 18/59/21
f 10/58/21 24/60/21 18/59/21
